<svg width="215" height="56" viewBox="0 0 215 56" fill="none" xmlns="http://www.w3.org/2000/svg">
<path d="M34.0822 26.021C34.0252 19.8393 39.2702 16.8319 39.5101 16.6919C36.5396 12.4666 31.9354 11.8892 30.3175 11.8432C26.4505 11.4462 22.6996 14.1007 20.7297 14.1007C18.7206 14.1007 15.6872 11.8816 12.4179 11.9468C8.21081 12.0101 4.27506 14.3865 2.11648 18.0767C-2.33827 25.601 0.984121 36.6582 5.25211 42.7402C7.38709 45.7188 9.88183 49.0446 13.1472 48.9276C16.3418 48.7991 17.5351 46.9406 21.3903 46.9406C25.21 46.9406 26.3306 48.9276 29.6609 48.8528C33.0894 48.7991 35.248 45.8607 37.3083 42.8553C39.7755 39.4412 40.7663 36.079 40.8056 35.9064C40.725 35.8795 34.1471 33.4302 34.0822 26.021Z" fill="white"/>
<path d="M27.7912 7.84267C29.5094 5.74631 30.6851 2.89425 30.3587 0C27.8718 0.107408 24.7618 1.67824 22.9708 3.72858C21.3863 5.53533 19.9708 8.49671 20.3365 11.2816C23.1301 11.4849 25.9983 9.90644 27.7912 7.84267Z" fill="white"/>
<path d="M80.3126 48.5022H75.848L73.4024 41.0048H64.9018L62.5722 48.5022H58.2256L66.6476 22.9775H71.8494L80.3126 48.5022ZM72.6652 37.8593L70.4536 31.1942C70.2196 30.5133 69.7812 28.9099 69.1344 26.3858H69.0558C68.7983 27.4714 68.3834 29.0748 67.8133 31.1942L65.641 37.8593H72.6652Z" fill="white"/>
<path d="M101.973 39.0728C101.973 42.203 101.106 44.6772 99.3717 46.4935C97.8187 48.1104 95.8901 48.9179 93.588 48.9179C91.1031 48.9179 89.3181 48.0471 88.2309 46.3056H88.1523V56.001H83.961V36.1555C83.961 34.1877 83.9079 32.168 83.8057 30.0966H87.4917L87.7257 33.0139H87.8043C89.2021 30.8158 91.3233 29.7188 94.1699 29.7188C96.3954 29.7188 98.2531 30.5761 99.7394 32.2927C101.23 34.0112 101.973 36.2706 101.973 39.0728ZM97.7027 39.2224C97.7027 37.431 97.2898 35.9541 96.4602 34.7918C95.5539 33.5797 94.337 32.9736 92.8115 32.9736C91.7774 32.9736 90.8377 33.3111 89.9983 33.9767C89.1569 34.648 88.6064 35.5245 88.3489 36.6101C88.2191 37.1165 88.1543 37.5307 88.1543 37.8568V40.9256C88.1543 42.2643 88.575 43.394 89.4164 44.3166C90.2578 45.2392 91.3508 45.6995 92.6955 45.6995C94.2741 45.6995 95.5028 45.1049 96.3816 43.9196C97.2623 42.7323 97.7027 41.1673 97.7027 39.2224Z" fill="white"/>
<path d="M123.669 39.0728C123.669 42.203 122.802 44.6772 121.066 46.4935C119.515 48.1104 117.586 48.9179 115.284 48.9179C112.799 48.9179 111.014 48.0471 109.929 46.3056H109.85V56.001H105.659V36.1555C105.659 34.1877 105.606 32.168 105.504 30.0966H109.19L109.424 33.0139H109.502C110.898 30.8158 113.019 29.7188 115.868 29.7188C118.091 29.7188 119.949 30.5761 121.439 32.2927C122.924 34.0112 123.669 36.2706 123.669 39.0728ZM119.399 39.2224C119.399 37.431 118.984 35.9541 118.154 34.7918C117.248 33.5797 116.035 32.9736 114.508 32.9736C113.472 32.9736 112.534 33.3111 111.692 33.9767C110.851 34.648 110.302 35.5245 110.045 36.6101C109.917 37.1165 109.85 37.5307 109.85 37.8568V40.9256C109.85 42.2643 110.271 43.394 111.108 44.3166C111.95 45.2372 113.043 45.6995 114.392 45.6995C115.97 45.6995 117.199 45.1049 118.078 43.9196C118.958 42.7323 119.399 41.1673 119.399 39.2224Z" fill="white"/>
<path d="M147.929 41.3433C147.929 43.5144 147.156 45.2809 145.605 46.6446C143.901 48.1349 141.528 48.8791 138.479 48.8791C135.663 48.8791 133.407 48.3497 131.698 47.289L132.669 43.8808C134.51 44.9663 136.528 45.5111 138.728 45.5111C140.307 45.5111 141.536 45.162 142.418 44.4677C143.297 43.7734 143.736 42.8412 143.736 41.6789C143.736 40.6432 143.374 39.7705 142.648 39.0628C141.927 38.355 140.722 37.6972 139.039 37.0891C134.458 35.4224 132.17 32.9808 132.17 29.7701C132.17 27.6718 132.972 25.9514 134.578 24.6126C136.179 23.2719 138.314 22.6025 140.983 22.6025C143.364 22.6025 145.342 23.0072 146.92 23.8147L145.872 27.1482C144.398 26.3656 142.731 25.9744 140.865 25.9744C139.391 25.9744 138.239 26.3292 137.413 27.035C136.715 27.666 136.365 28.4352 136.365 29.3462C136.365 30.3551 136.764 31.1894 137.566 31.8454C138.264 32.4514 139.532 33.1074 141.373 33.8151C143.623 34.6993 145.277 35.7331 146.34 36.9184C147.4 38.0999 147.929 39.5787 147.929 41.3433Z" fill="white"/>
<path d="M161.786 33.1655H157.166V42.1014C157.166 44.3742 157.98 45.5097 159.612 45.5097C160.361 45.5097 160.982 45.4464 161.474 45.3198L161.59 48.425C160.764 48.7261 159.677 48.8777 158.33 48.8777C156.675 48.8777 155.381 48.3847 154.448 47.4008C153.518 46.415 153.05 44.7616 153.05 42.439V33.1616H150.298V30.0928H153.05V26.7229L157.166 25.5107V30.0928H161.786V33.1655Z" fill="white"/>
<path d="M182.632 39.1467C182.632 41.9757 181.803 44.2984 180.147 46.1147C178.411 47.9848 176.107 48.9169 173.235 48.9169C170.467 48.9169 168.263 48.0212 166.62 46.2298C164.976 44.4384 164.155 42.1771 164.155 39.4516C164.155 36.5996 165 34.2635 166.696 32.4471C168.389 30.6289 170.674 29.7197 173.546 29.7197C176.314 29.7197 178.541 30.6154 180.222 32.4088C181.83 34.1484 182.632 36.3943 182.632 39.1467ZM178.284 39.279C178.284 37.5816 177.912 36.1258 177.159 34.9117C176.28 33.4426 175.024 32.7099 173.396 32.7099C171.711 32.7099 170.432 33.4445 169.553 34.9117C168.8 36.1277 168.428 37.6065 168.428 39.3557C168.428 41.0531 168.8 42.5089 169.553 43.7211C170.459 45.1903 171.725 45.9229 173.359 45.9229C174.959 45.9229 176.215 45.1749 177.122 43.6827C177.894 42.4456 178.284 40.9745 178.284 39.279Z" fill="white"/>
<path d="M196.252 33.6928C195.837 33.618 195.395 33.5797 194.931 33.5797C193.457 33.5797 192.316 34.1225 191.514 35.21C190.816 36.169 190.466 37.3811 190.466 38.8446V48.5017H186.277L186.316 35.8928C186.316 33.7715 186.263 31.8401 186.159 30.0985H189.81L189.963 33.6199H190.079C190.522 32.4097 191.219 31.4354 192.175 30.7046C193.109 30.0467 194.117 29.7188 195.204 29.7188C195.592 29.7188 195.942 29.7456 196.252 29.7936V33.6928Z" fill="white"/>
<path d="M215 38.4277C215 39.1604 214.951 39.778 214.847 40.2824H202.273C202.322 42.1007 202.93 43.4912 204.097 44.4502C205.157 45.3076 206.527 45.7372 208.21 45.7372C210.072 45.7372 211.77 45.4476 213.298 44.8664L213.955 47.7051C212.169 48.4646 210.062 48.8424 207.63 48.8424C204.705 48.8424 202.409 48.0023 200.738 46.3241C199.071 44.6459 198.235 42.3922 198.235 39.5651C198.235 36.7898 199.012 34.4786 200.567 32.6354C202.194 30.6675 204.394 29.6836 207.162 29.6836C209.881 29.6836 211.939 30.6675 213.337 32.6354C214.444 34.1985 215 36.1319 215 38.4277ZM211.004 37.3671C211.031 36.1549 210.758 35.1077 210.19 34.2235C209.464 33.0861 208.35 32.5184 206.85 32.5184C205.479 32.5184 204.365 33.0727 203.514 34.1851C202.816 35.0693 202.401 36.13 202.273 37.3652H211.004V37.3671Z" fill="white"/>
<path d="M71.2797 7.27267C71.2797 9.53014 70.5857 11.2295 69.1997 12.3707C67.916 13.4237 66.0916 13.9511 63.7286 13.9511C62.5569 13.9511 61.5543 13.9013 60.7148 13.8015V1.4669C61.8099 1.29428 62.9894 1.20605 64.2633 1.20605C66.5143 1.20605 68.2109 1.68363 69.355 2.6388C70.6368 3.71863 71.2797 5.26261 71.2797 7.27267ZM69.1073 7.32829C69.1073 5.86486 68.7102 4.74283 67.916 3.96029C67.1218 3.17967 65.9619 2.7884 64.4344 2.7884C63.7856 2.7884 63.2332 2.83059 62.7751 2.91882V12.2959C63.0287 12.3343 63.4927 12.3515 64.167 12.3515C65.7436 12.3515 66.9606 11.9238 67.8177 11.0684C68.6748 10.213 69.1073 8.96626 69.1073 7.32829Z" fill="white"/>
<path d="M82.7971 9.24429C82.7971 10.6348 82.3901 11.7741 81.5762 12.6679C80.723 13.5866 79.5926 14.045 78.1811 14.045C76.8207 14.045 75.7375 13.6058 74.9295 12.7235C74.1235 11.8432 73.7205 10.7327 73.7205 9.3939C73.7205 7.99376 74.1353 6.84488 74.9688 5.95302C75.8024 5.06115 76.9229 4.61426 78.3345 4.61426C79.6949 4.61426 80.7879 5.05348 81.6156 5.93384C82.4019 6.78926 82.7971 7.89403 82.7971 9.24429ZM80.6601 9.3095C80.6601 8.47518 80.4753 7.75977 80.1077 7.16327C79.6752 6.4421 79.0599 6.08152 78.2598 6.08152C77.4321 6.08152 76.803 6.4421 76.3705 7.16327C76.0009 7.75977 75.8181 8.48669 75.8181 9.34595C75.8181 10.1803 76.0029 10.8957 76.3705 11.4922C76.8168 12.2133 77.438 12.5739 78.2401 12.5739C79.0265 12.5739 79.6437 12.2076 80.088 11.473C80.4694 10.865 80.6601 10.1438 80.6601 9.3095Z" fill="white"/>
<path d="M98.2436 4.79883L95.3439 13.8402H93.4566L92.2554 9.91412C91.9507 8.93402 91.703 7.95968 91.5103 6.99301H91.473C91.2941 7.98653 91.0464 8.95896 90.7279 9.91412L89.452 13.8402H87.5431L84.8164 4.79883H86.9337L87.9815 9.09705C88.2351 10.1136 88.4435 11.0822 88.6106 11.999H88.648C88.8013 11.2433 89.0549 10.2805 89.4127 9.11623L90.7279 4.80075H92.4068L93.6669 9.02417C93.9717 10.0541 94.2194 11.0457 94.41 12.0009H94.4671C94.6066 11.0707 94.817 10.0791 95.0962 9.02417L96.2207 4.80075H98.2436V4.79883Z" fill="white"/>
<path d="M108.924 13.8387H106.864V8.66014C106.864 7.06437 106.242 6.26649 104.996 6.26649C104.385 6.26649 103.891 6.48514 103.508 6.92436C103.128 7.36358 102.936 7.88144 102.936 8.4741V13.8368H100.875V7.38084C100.875 6.58679 100.85 5.72561 100.801 4.79347H102.611L102.708 6.20703H102.765C103.005 5.76781 103.362 5.40531 103.832 5.11569C104.391 4.77812 105.016 4.60742 105.7 4.60742C106.565 4.60742 107.284 4.87978 107.856 5.42641C108.568 6.09578 108.924 7.09506 108.924 8.42231V13.8387Z" fill="white"/>
<path d="M114.604 13.8395H112.547V0.649414H114.604V13.8395Z" fill="white"/>
<path d="M126.734 9.24429C126.734 10.6348 126.327 11.7741 125.513 12.6679C124.66 13.5866 123.528 14.045 122.118 14.045C120.756 14.045 119.673 13.6058 118.867 12.7235C118.06 11.8432 117.657 10.7327 117.657 9.3939C117.657 7.99376 118.072 6.84488 118.906 5.95302C119.739 5.06115 120.86 4.61426 122.269 4.61426C123.632 4.61426 124.723 5.05348 125.553 5.93384C126.339 6.78926 126.734 7.89403 126.734 9.24429ZM124.595 9.3095C124.595 8.47518 124.41 7.75977 124.043 7.16327C123.612 6.4421 122.995 6.08152 122.197 6.08152C121.367 6.08152 120.738 6.4421 120.308 7.16327C119.938 7.75977 119.755 8.48669 119.755 9.34595C119.755 10.1803 119.94 10.8957 120.308 11.4922C120.754 12.2133 121.375 12.5739 122.177 12.5739C122.963 12.5739 123.579 12.2076 124.023 11.473C124.406 10.865 124.595 10.1438 124.595 9.3095Z" fill="white"/>
<path d="M136.704 13.8398H134.854L134.701 12.7983H134.644C134.01 13.6288 133.108 14.045 131.936 14.045C131.062 14.045 130.354 13.7708 129.821 13.226C129.338 12.7312 129.096 12.1155 129.096 11.3848C129.096 10.28 129.568 9.43801 130.517 8.85494C131.465 8.27187 132.798 7.98609 134.514 7.99951V7.83073C134.514 6.63966 133.873 6.04508 132.589 6.04508C131.675 6.04508 130.869 6.26949 130.173 6.71446L129.754 5.39488C130.615 4.8751 131.679 4.61426 132.933 4.61426C135.355 4.61426 136.57 5.86095 136.57 8.35434V11.684C136.57 12.5874 136.615 13.3066 136.704 13.8398ZM134.565 10.7327V9.33828C132.292 9.29992 131.156 9.90792 131.156 11.1604C131.156 11.6322 131.286 11.9851 131.551 12.221C131.817 12.4569 132.155 12.5739 132.558 12.5739C133.01 12.5739 133.433 12.4339 133.818 12.1558C134.205 11.8758 134.443 11.5209 134.531 11.0856C134.553 10.9877 134.565 10.8688 134.565 10.7327Z" fill="white"/>
<path d="M148.413 13.8395H146.585L146.488 12.3875H146.431C145.847 13.4923 144.853 14.0447 143.455 14.0447C142.338 14.0447 141.408 13.617 140.671 12.7615C139.934 11.9061 139.566 10.7956 139.566 9.43191C139.566 7.96848 139.965 6.78316 140.768 5.87786C141.544 5.03395 142.496 4.61199 143.628 4.61199C144.872 4.61199 145.743 5.02052 146.239 5.8395H146.278V0.649414H148.34V11.4036C148.34 12.284 148.364 13.0953 148.413 13.8395ZM146.278 10.0265V8.51894C146.278 8.25809 146.258 8.04712 146.221 7.886C146.105 7.40267 145.855 6.99605 145.476 6.66808C145.093 6.3401 144.631 6.17515 144.098 6.17515C143.329 6.17515 142.728 6.47244 142.285 7.06894C141.847 7.66543 141.625 8.42688 141.625 9.3571C141.625 10.2509 141.835 10.9759 142.258 11.534C142.704 12.1286 143.306 12.4259 144.059 12.4259C144.735 12.4259 145.275 12.1785 145.686 11.6817C146.083 11.2233 146.278 10.6709 146.278 10.0265Z" fill="white"/>
<path d="M166.033 9.24429C166.033 10.6348 165.626 11.7741 164.812 12.6679C163.959 13.5866 162.83 14.045 161.417 14.045C160.058 14.045 158.975 13.6058 158.165 12.7235C157.359 11.8432 156.956 10.7327 156.956 9.3939C156.956 7.99376 157.371 6.84488 158.204 5.95302C159.038 5.06115 160.159 4.61426 161.572 4.61426C162.93 4.61426 164.025 5.05348 164.851 5.93384C165.638 6.78926 166.033 7.89403 166.033 9.24429ZM163.898 9.3095C163.898 8.47518 163.713 7.75977 163.345 7.16327C162.911 6.4421 162.297 6.08152 161.495 6.08152C160.67 6.08152 160.041 6.4421 159.606 7.16327C159.237 7.75977 159.054 8.48669 159.054 9.34595C159.054 10.1803 159.238 10.8957 159.606 11.4922C160.052 12.2133 160.674 12.5739 161.476 12.5739C162.262 12.5739 162.881 12.2076 163.326 11.473C163.705 10.865 163.898 10.1438 163.898 9.3095Z" fill="white"/>
<path d="M177.109 13.8397H175.051V8.66112C175.051 7.06535 174.43 6.26746 173.182 6.26746C172.57 6.26746 172.077 6.48611 171.695 6.92533C171.314 7.36456 171.123 7.88241 171.123 8.47507V13.8378H169.061V7.38182C169.061 6.58777 169.037 5.72659 168.988 4.79444H170.797L170.893 6.20801H170.95C171.192 5.76879 171.55 5.40628 172.018 5.11667C172.578 4.7791 173.201 4.6084 173.887 4.6084C174.75 4.6084 175.47 4.88075 176.042 5.42738C176.756 6.09676 177.109 7.09604 177.109 8.42329V13.8397Z" fill="white"/>
<path d="M190.975 6.30422H188.706V10.6964C188.706 11.8127 189.109 12.3708 189.907 12.3708C190.277 12.3708 190.584 12.3401 190.826 12.2769L190.879 13.8017C190.472 13.9513 189.937 14.0261 189.278 14.0261C188.464 14.0261 187.831 13.7844 187.373 13.3011C186.913 12.8177 186.685 12.0045 186.685 10.8633V6.30422H185.331V4.7986H186.685V3.14145L188.704 2.54688V4.79668H190.973V6.30422H190.975Z" fill="white"/>
<path d="M201.884 13.8395H199.822V8.69923C199.822 7.07853 199.201 6.26722 197.956 6.26722C197.001 6.26722 196.348 6.73712 195.991 7.67694C195.93 7.8745 195.894 8.11616 195.894 8.40002V13.8375H193.836V0.649414H195.894V6.09843H195.934C196.582 5.10683 197.512 4.61199 198.717 4.61199C199.571 4.61199 200.276 4.88434 200.837 5.43097C201.534 6.11186 201.884 7.12456 201.884 8.46332V13.8395Z" fill="white"/>
<path d="M213.134 8.89107C213.134 9.25165 213.107 9.55469 213.058 9.80211H206.879C206.906 10.6959 207.201 11.3768 207.773 11.8486C208.296 12.2706 208.971 12.4816 209.796 12.4816C210.71 12.4816 211.544 12.3396 212.295 12.0538L212.617 13.4501C211.739 13.8222 210.705 14.0083 209.507 14.0083C208.072 14.0083 206.942 13.5959 206.124 12.7712C205.302 11.9464 204.895 10.8397 204.895 9.45112C204.895 8.08743 205.275 6.95198 206.039 6.04668C206.838 5.08001 207.917 4.59668 209.279 4.59668C210.612 4.59668 211.625 5.08001 212.309 6.04668C212.861 6.81388 213.134 7.76329 213.134 8.89107ZM211.168 8.37129C211.184 7.77479 211.049 7.26077 210.769 6.82731C210.412 6.26917 209.867 5.98914 209.13 5.98914C208.457 5.98914 207.909 6.2615 207.49 6.80813C207.148 7.24351 206.946 7.76329 206.879 8.37129H211.168Z" fill="white"/>
</svg>
