<svg width="16" height="16" viewBox="0 0 16 16" fill="none" xmlns="http://www.w3.org/2000/svg">
<path d="M0.666748 12C0.766748 10.8111 1.13075 9.71665 1.75875 8.71665C2.38675 7.71665 3.22275 6.92221 4.26675 6.33332L3.03341 4.19999C2.96675 4.09999 2.95008 3.99443 2.98341 3.88332C3.01675 3.77221 3.08897 3.68888 3.20008 3.63332C3.28897 3.57777 3.38897 3.56665 3.50008 3.59999C3.61119 3.63332 3.70008 3.69999 3.76675 3.79999L5.00008 5.93332C5.95564 5.53332 6.95564 5.33332 8.00008 5.33332C9.04453 5.33332 10.0445 5.53332 11.0001 5.93332L12.2334 3.79999C12.3001 3.69999 12.389 3.63332 12.5001 3.59999C12.6112 3.56665 12.7112 3.57777 12.8001 3.63332C12.9112 3.68888 12.9834 3.77221 13.0167 3.88332C13.0501 3.99443 13.0334 4.09999 12.9667 4.19999L11.7334 6.33332C12.7779 6.92221 13.6139 7.71665 14.2414 8.71665C14.869 9.71665 15.233 10.8111 15.3334 12H0.666748ZM4.66675 10.1667C4.90008 10.1667 5.09741 10.086 5.25875 9.92465C5.42008 9.76332 5.50053 9.56621 5.50008 9.33332C5.50008 9.09999 5.41941 8.90265 5.25808 8.74132C5.09675 8.57999 4.89964 8.49954 4.66675 8.49999C4.43341 8.49999 4.23608 8.58065 4.07475 8.74199C3.91341 8.90332 3.83297 9.10043 3.83341 9.33332C3.83341 9.56665 3.91408 9.76399 4.07541 9.92532C4.23675 10.0867 4.43386 10.1671 4.66675 10.1667ZM11.3334 10.1667C11.5667 10.1667 11.7641 10.086 11.9254 9.92465C12.0867 9.76332 12.1672 9.56621 12.1667 9.33332C12.1667 9.09999 12.0861 8.90265 11.9247 8.74132C11.7634 8.57999 11.5663 8.49954 11.3334 8.49999C11.1001 8.49999 10.9027 8.58065 10.7414 8.74199C10.5801 8.90332 10.4996 9.10043 10.5001 9.33332C10.5001 9.56665 10.5807 9.76399 10.7421 9.92532C10.9034 10.0867 11.1005 10.1671 11.3334 10.1667Z" fill="#D8FF69"/>
</svg>
