<svg width="154" height="40" viewBox="0 0 154 40" fill="none" xmlns="http://www.w3.org/2000/svg">
<path d="M24.4117 18.5866C24.3709 14.1711 28.1278 12.0229 28.2996 11.9229C26.1719 8.90482 22.874 8.49246 21.7151 8.45958C18.9453 8.17599 16.2585 10.0721 14.8476 10.0721C13.4085 10.0721 11.2357 8.48698 8.89396 8.53356C5.88054 8.57877 3.06144 10.2762 1.5153 12.9121C-1.67555 18.2866 0.704206 26.1846 3.76128 30.5288C5.29053 32.6564 7.07746 35.032 9.41638 34.9484C11.7046 34.8566 12.5594 33.5291 15.3207 33.5291C18.0567 33.5291 18.8594 34.9484 21.2448 34.895C23.7006 34.8566 25.2467 32.7578 26.7225 30.611C28.4897 28.1724 29.1994 25.7708 29.2275 25.6475C29.1698 25.6284 24.4582 23.8789 24.4117 18.5866Z" fill="white"/>
<path d="M19.9055 5.60191C21.1362 4.10451 21.9783 2.06732 21.7446 0C19.9633 0.0767197 17.7356 1.19875 16.4528 2.66327C15.3178 3.95381 14.3039 6.06908 14.5658 8.05831C16.5668 8.20353 18.6213 7.07603 19.9055 5.60191Z" fill="white"/>
<path d="M57.5258 34.6435H54.3279L52.5762 29.2882H46.4874L44.8187 34.6435H41.7053L47.7378 16.4116H51.4637L57.5258 34.6435ZM52.0481 27.0414L50.464 22.2807C50.2964 21.7943 49.9824 20.649 49.5191 18.8461H49.4628C49.2783 19.6215 48.9812 20.7668 48.5728 22.2807L47.0168 27.0414H52.0481Z" fill="white"/>
<path d="M73.0402 27.9085C73.0402 30.1443 72.4192 31.9116 71.1773 33.209C70.0648 34.3639 68.6834 34.9407 67.0345 34.9407C65.2546 34.9407 63.976 34.3187 63.1973 33.0748H63.141V40.0001H60.1388V25.8248C60.1388 24.4191 60.1008 22.9765 60.0276 21.4969H62.6679L62.8354 23.5807H62.8917C63.8929 22.0107 65.4123 21.2271 67.4513 21.2271C69.0453 21.2271 70.376 21.8394 71.4406 23.0656C72.508 24.2931 73.0402 25.907 73.0402 27.9085ZM69.9817 28.0154C69.9817 26.7358 69.686 25.6809 69.0918 24.8507C68.4426 23.9849 67.571 23.5519 66.4783 23.5519C65.7376 23.5519 65.0645 23.7931 64.4632 24.2684C63.8605 24.7479 63.4663 25.374 63.2818 26.1494C63.1889 26.5111 63.1424 26.807 63.1424 27.0399V29.2319C63.1424 30.1882 63.4437 30.9951 64.0464 31.6541C64.6491 32.3131 65.432 32.6418 66.3952 32.6418C67.5259 32.6418 68.406 32.2172 69.0355 31.3705C69.6663 30.5225 69.9817 29.4046 69.9817 28.0154Z" fill="white"/>
<path d="M88.5811 27.9085C88.5811 30.1443 87.9601 31.9116 86.7167 33.209C85.6057 34.3639 84.2243 34.9407 82.5753 34.9407C80.7954 34.9407 79.5168 34.3187 78.7396 33.0748H78.6832V40.0001H75.6811V25.8248C75.6811 24.4191 75.643 22.9765 75.5698 21.4969H78.2101L78.3777 23.5807H78.434C79.4338 22.0107 80.9532 21.2271 82.9936 21.2271C84.5862 21.2271 85.9169 21.8394 86.9842 23.0656C88.0474 24.2931 88.5811 25.907 88.5811 27.9085ZM85.5226 28.0154C85.5226 26.7358 85.2255 25.6809 84.6312 24.8507C83.9821 23.9849 83.1132 23.5519 82.0191 23.5519C81.277 23.5519 80.6053 23.7931 80.0027 24.2684C79.4 24.7479 79.0071 25.374 78.8226 26.1494C78.7311 26.5111 78.6832 26.807 78.6832 27.0399V29.2319C78.6832 30.1882 78.9846 30.9951 79.5844 31.6541C80.1871 32.3117 80.9701 32.6418 81.936 32.6418C83.0668 32.6418 83.9469 32.2172 84.5763 31.3705C85.2072 30.5225 85.5226 29.4046 85.5226 28.0154Z" fill="white"/>
<path d="M105.958 29.5308C105.958 31.0816 105.405 32.3434 104.293 33.3174C103.073 34.3819 101.373 34.9135 99.189 34.9135C97.1725 34.9135 95.556 34.5354 94.3323 33.7777L95.0279 31.3433C96.3459 32.1187 97.7921 32.5078 99.3678 32.5078C100.499 32.5078 101.379 32.2584 102.011 31.7625C102.64 31.2665 102.954 30.6007 102.954 29.7705C102.954 29.0307 102.695 28.4074 102.176 27.9018C101.659 27.3963 100.796 26.9264 99.5903 26.4921C96.3093 25.3016 94.6702 23.5576 94.6702 21.2642C94.6702 19.7654 95.2448 18.5365 96.3952 17.5803C97.5414 16.6227 99.0707 16.1445 100.983 16.1445C102.688 16.1445 104.105 16.4336 105.236 17.0104L104.485 19.3914C103.429 18.8325 102.235 18.553 100.898 18.553C99.8423 18.553 99.0172 18.8064 98.4258 19.3106C97.9259 19.7613 97.6752 20.3107 97.6752 20.9614C97.6752 21.6821 97.9611 22.278 98.5356 22.7465C99.0355 23.1795 99.9437 23.648 101.262 24.1535C102.874 24.7851 104.058 25.5235 104.82 26.3702C105.579 27.2141 105.958 28.2704 105.958 29.5308Z" fill="white"/>
<path d="M115.884 23.6893H112.575V30.0721C112.575 31.6956 113.158 32.5066 114.326 32.5066C114.863 32.5066 115.308 32.4614 115.66 32.371L115.743 34.589C115.151 34.8041 114.373 34.9123 113.408 34.9123C112.223 34.9123 111.296 34.5602 110.627 33.8574C109.961 33.1533 109.626 31.9723 109.626 30.3133V23.6866H107.655V21.4946H109.626V19.0875L112.575 18.2217V21.4946H115.884V23.6893Z" fill="white"/>
<path d="M130.815 27.962C130.815 29.9828 130.221 31.6419 129.036 32.9392C127.792 34.275 126.142 34.9408 124.085 34.9408C122.102 34.9408 120.523 34.301 119.346 33.0214C118.169 31.7419 117.58 30.1266 117.58 28.1799C117.58 26.1427 118.186 24.474 119.401 23.1767C120.613 21.8779 122.25 21.2285 124.307 21.2285C126.29 21.2285 127.885 21.8683 129.089 23.1492C130.241 24.3918 130.815 25.9961 130.815 27.962ZM127.701 28.0566C127.701 26.8441 127.434 25.8043 126.895 24.9371C126.266 23.8877 125.366 23.3643 124.2 23.3643C122.993 23.3643 122.077 23.889 121.447 24.9371C120.908 25.8057 120.642 26.8619 120.642 28.1114C120.642 29.3238 120.908 30.3636 121.447 31.2295C122.096 32.2789 123.003 32.8022 124.173 32.8022C125.319 32.8022 126.219 32.2679 126.868 31.2021C127.422 30.3184 127.701 29.2676 127.701 28.0566Z" fill="white"/>
<path d="M140.571 24.0657C140.274 24.0123 139.957 23.9849 139.625 23.9849C138.569 23.9849 137.752 24.3726 137.178 25.1493C136.678 25.8343 136.427 26.7002 136.427 27.7455V34.6434H133.426L133.454 25.6371C133.454 24.1219 133.416 22.7423 133.342 21.4983H135.957L136.067 24.0136H136.15C136.466 23.1492 136.966 22.4532 137.651 21.9312C138.32 21.4613 139.042 21.2271 139.821 21.2271C140.098 21.2271 140.349 21.2462 140.571 21.2805V24.0657Z" fill="white"/>
<path d="M154 27.448C154 27.9713 153.965 28.4124 153.89 28.7727H144.884C144.919 30.0715 145.354 31.0647 146.191 31.7497C146.95 32.3621 147.931 32.669 149.136 32.669C150.47 32.669 151.687 32.4621 152.781 32.047L153.251 34.0746C151.972 34.6171 150.463 34.887 148.721 34.887C146.626 34.887 144.981 34.287 143.784 33.0882C142.59 31.8895 141.991 30.2797 141.991 28.2604C141.991 26.278 142.548 24.6271 143.662 23.3106C144.827 21.905 146.403 21.2021 148.386 21.2021C150.333 21.2021 151.808 21.905 152.809 23.3106C153.602 24.4271 154 25.8081 154 27.448ZM151.137 26.6903C151.157 25.8245 150.961 25.0765 150.554 24.4449C150.035 23.6325 149.236 23.227 148.162 23.227C147.18 23.227 146.382 23.6229 145.772 24.4175C145.272 25.0491 144.975 25.8067 144.884 26.689H151.137V26.6903Z" fill="white"/>
<path d="M51.0547 5.19511C51.0547 6.8076 50.5576 8.02141 49.5649 8.83656C48.6453 9.58869 47.3386 9.96544 45.646 9.96544C44.8067 9.96544 44.0886 9.92981 43.4873 9.85857V1.04814C44.2716 0.924836 45.1165 0.861816 46.029 0.861816C47.6413 0.861816 48.8566 1.20294 49.6761 1.8852C50.5942 2.65651 51.0547 3.75936 51.0547 5.19511ZM49.4987 5.23484C49.4987 4.18953 49.2142 3.38809 48.6453 2.82913C48.0764 2.27154 47.2456 1.99206 46.1515 1.99206C45.6868 1.99206 45.2911 2.0222 44.963 2.08522V8.78313C45.1447 8.81053 45.477 8.82286 45.96 8.82286C47.0893 8.82286 47.961 8.51735 48.5749 7.90633C49.1889 7.29531 49.4987 6.40482 49.4987 5.23484Z" fill="white"/>
<path d="M59.3041 6.60307C59.3041 7.59631 59.0126 8.41009 58.4297 9.04851C57.8185 9.70473 57.0089 10.0322 55.9978 10.0322C55.0234 10.0322 54.2475 9.71844 53.6687 9.08824C53.0914 8.45941 52.8027 7.66618 52.8027 6.70993C52.8027 5.70983 53.0999 4.8892 53.6969 4.25215C54.294 3.61511 55.0966 3.2959 56.1076 3.2959C57.0821 3.2959 57.865 3.60963 58.4578 4.23845C59.0211 4.84947 59.3041 5.63859 59.3041 6.60307ZM57.7735 6.64965C57.7735 6.0537 57.6411 5.54269 57.3778 5.11662C57.068 4.6015 56.6273 4.34394 56.0541 4.34394C55.4613 4.34394 55.0107 4.6015 54.7009 5.11662C54.4362 5.54269 54.3052 6.06192 54.3052 6.67568C54.3052 7.27162 54.4376 7.78263 54.7009 8.2087C55.0206 8.72382 55.4655 8.98138 56.0401 8.98138C56.6033 8.98138 57.0455 8.71971 57.3637 8.195C57.6369 7.76071 57.7735 7.24559 57.7735 6.64965Z" fill="white"/>
<path d="M70.3683 3.42773L68.2913 9.88589H66.9395L66.0791 7.08151C65.8609 6.38144 65.6835 5.68549 65.5455 4.99501H65.5187C65.3906 5.70467 65.2131 6.39925 64.985 7.08151L64.0711 9.88589H62.7038L60.7507 3.42773H62.2673L63.0178 6.49789C63.1995 7.22399 63.3488 7.91584 63.4684 8.5707H63.4952C63.605 8.03092 63.7867 7.34318 64.043 6.51159L64.985 3.4291H66.1876L67.0902 6.44583C67.3085 7.18152 67.4859 7.88981 67.6225 8.57207H67.6633C67.7633 7.90762 67.914 7.19933 68.1139 6.44583L68.9194 3.4291H70.3683V3.42773Z" fill="white"/>
<path d="M78.0186 9.88578H76.5429V6.18679C76.5429 5.04696 76.0979 4.47704 75.2052 4.47704C74.7672 4.47704 74.4138 4.63322 74.1392 4.94695C73.8674 5.26068 73.7294 5.63057 73.7294 6.0539V9.88441H72.2537V5.27301C72.2537 4.70583 72.2354 4.0907 72.2002 3.42488H73.4971L73.5661 4.43457H73.6069C73.7787 4.12084 74.035 3.86191 74.3716 3.65504C74.7715 3.41392 75.2192 3.29199 75.7093 3.29199C76.3289 3.29199 76.8442 3.48653 77.254 3.87698C77.7638 4.35511 78.0186 5.06888 78.0186 6.01691V9.88578Z" fill="white"/>
<path d="M82.0866 9.88581H80.6133V0.464355H82.0866V9.88581Z" fill="white"/>
<path d="M90.7758 6.60307C90.7758 7.59631 90.4843 8.41009 89.9014 9.04851C89.2902 9.70473 88.4791 10.0322 87.4695 10.0322C86.4937 10.0322 85.7178 9.71844 85.1404 9.08824C84.5631 8.45941 84.2744 7.66618 84.2744 6.70993C84.2744 5.70983 84.5715 4.8892 85.1686 4.25215C85.7656 3.61511 86.5683 3.2959 87.5779 3.2959C88.5538 3.2959 89.3353 3.60963 89.9295 4.23845C90.4928 4.84947 90.7758 5.63859 90.7758 6.60307ZM89.2437 6.64965C89.2437 6.0537 89.1114 5.54269 88.8481 5.11662C88.5397 4.6015 88.0975 4.34394 87.5258 4.34394C86.9316 4.34394 86.481 4.6015 86.1726 5.11662C85.9079 5.54269 85.7769 6.06192 85.7769 6.67568C85.7769 7.27162 85.9093 7.78263 86.1726 8.2087C86.4922 8.72382 86.9372 8.98138 87.5117 8.98138C88.075 8.98138 88.5157 8.71971 88.834 8.195C89.1086 7.76071 89.2437 7.24559 89.2437 6.64965Z" fill="white"/>
<path d="M97.9166 9.88557H96.5915L96.4817 9.14167H96.4408C95.9874 9.73488 95.3411 10.0322 94.5018 10.0322C93.8752 10.0322 93.3683 9.83625 92.9867 9.44718C92.6402 9.09372 92.467 8.65395 92.467 8.13198C92.467 7.34286 92.805 6.74144 93.4851 6.32496C94.1639 5.90848 95.1186 5.70435 96.3479 5.71394V5.59338C96.3479 4.74261 95.8888 4.31792 94.9693 4.31792C94.3145 4.31792 93.7372 4.4782 93.2387 4.79604L92.9388 3.85349C93.5555 3.48222 94.3173 3.2959 95.2157 3.2959C96.9506 3.2959 97.8208 4.1864 97.8208 5.96739V8.3457C97.8208 8.99097 97.8532 9.50472 97.9166 9.88557ZM96.3845 7.66618V6.6702C94.7567 6.6428 93.9428 7.07709 93.9428 7.97169C93.9428 8.30871 94.0357 8.56079 94.2258 8.7293C94.4159 8.89781 94.6581 8.98138 94.9468 8.98138C95.2707 8.98138 95.5734 8.88137 95.8494 8.68272C96.1268 8.4827 96.2972 8.22925 96.3606 7.91826C96.376 7.84839 96.3845 7.76345 96.3845 7.66618Z" fill="white"/>
<path d="M106.304 9.88581H104.994L104.925 8.84873H104.884C104.466 9.63784 103.754 10.0324 102.752 10.0324C101.953 10.0324 101.286 9.72689 100.758 9.11588C100.23 8.50486 99.967 7.71163 99.967 6.73756C99.967 5.69226 100.253 4.8456 100.827 4.19896C101.384 3.59616 102.065 3.29476 102.876 3.29476C103.768 3.29476 104.391 3.58657 104.746 4.17156H104.774V0.464355H106.252V8.14592C106.252 8.77475 106.268 9.35425 106.304 9.88581ZM104.774 7.16226V6.08545C104.774 5.89913 104.76 5.74843 104.734 5.63335C104.651 5.28811 104.472 4.99767 104.2 4.7634C103.925 4.52913 103.594 4.41131 103.213 4.41131C102.662 4.41131 102.231 4.62366 101.914 5.04973C101.6 5.4758 101.441 6.01969 101.441 6.68413C101.441 7.32255 101.592 7.84041 101.895 8.23908C102.214 8.66378 102.645 8.87613 103.185 8.87613C103.669 8.87613 104.056 8.6994 104.351 8.34457C104.635 8.01714 104.774 7.62258 104.774 7.16226Z" fill="white"/>
<path d="M118.924 6.60307C118.924 7.59631 118.633 8.41009 118.05 9.04851C117.439 9.70473 116.63 10.0322 115.618 10.0322C114.645 10.0322 113.869 9.71844 113.289 9.08824C112.712 8.45941 112.423 7.66618 112.423 6.70993C112.423 5.70983 112.72 4.8892 113.317 4.25215C113.914 3.61511 114.717 3.2959 115.729 3.2959C116.702 3.2959 117.487 3.60963 118.078 4.23845C118.641 4.84947 118.924 5.63859 118.924 6.60307ZM117.395 6.64965C117.395 6.0537 117.263 5.54269 116.999 5.11662C116.688 4.6015 116.249 4.34394 115.674 4.34394C115.083 4.34394 114.632 4.6015 114.321 5.11662C114.056 5.54269 113.925 6.06192 113.925 6.67568C113.925 7.27162 114.058 7.78263 114.321 8.2087C114.641 8.72382 115.086 8.98138 115.66 8.98138C116.223 8.98138 116.667 8.71971 116.985 8.195C117.257 7.76071 117.395 7.24559 117.395 6.64965Z" fill="white"/>
<path d="M126.859 9.88578H125.385V6.18679C125.385 5.04696 124.94 4.47704 124.046 4.47704C123.608 4.47704 123.254 4.63322 122.981 4.94695C122.708 5.26068 122.571 5.63057 122.571 6.0539V9.88441H121.094V5.27301C121.094 4.70583 121.077 4.0907 121.042 3.42488H122.338L122.407 4.43457H122.448C122.621 4.12084 122.877 3.86191 123.212 3.65504C123.614 3.41392 124.06 3.29199 124.551 3.29199C125.17 3.29199 125.685 3.48653 126.095 3.87698C126.606 4.35511 126.859 5.06888 126.859 6.01691V9.88578Z" fill="white"/>
<path d="M136.79 4.50364H135.165V7.64093C135.165 8.43827 135.454 8.83694 136.025 8.83694C136.29 8.83694 136.51 8.81502 136.683 8.76981L136.721 9.85896C136.429 9.96582 136.046 10.0192 135.575 10.0192C134.992 10.0192 134.538 9.84663 134.21 9.50139C133.881 9.15615 133.717 8.57527 133.717 7.76012V4.50364H132.747V3.4282H133.717V2.24452L135.163 1.81982V3.42683H136.788V4.50364H136.79Z" fill="white"/>
<path d="M144.605 9.88581H143.128V6.21423C143.128 5.05658 142.683 4.47707 141.791 4.47707C141.107 4.47707 140.639 4.81272 140.383 5.48402C140.34 5.62513 140.314 5.79775 140.314 6.00051V9.88444H138.84V0.464355H140.314V4.35651H140.342C140.807 3.64822 141.473 3.29476 142.336 3.29476C142.947 3.29476 143.453 3.4893 143.854 3.87975C144.354 4.3661 144.605 5.08946 144.605 6.04572V9.88581Z" fill="white"/>
<path d="M152.662 6.35111C152.662 6.60867 152.643 6.82513 152.607 7.00186H148.182C148.201 7.64028 148.412 8.12663 148.822 8.46364C149.197 8.76504 149.68 8.91574 150.271 8.91574C150.926 8.91574 151.523 8.81436 152.061 8.61023L152.292 9.60759C151.662 9.87337 150.922 10.0063 150.064 10.0063C149.036 10.0063 148.227 9.71171 147.641 9.12261C147.052 8.53351 146.761 7.74303 146.761 6.75115C146.761 5.77708 147.033 4.96605 147.58 4.31941C148.152 3.62893 148.925 3.28369 149.901 3.28369C150.856 3.28369 151.581 3.62893 152.071 4.31941C152.467 4.86741 152.662 5.54555 152.662 6.35111ZM151.254 5.97984C151.265 5.55377 151.168 5.18662 150.968 4.877C150.712 4.47833 150.322 4.27831 149.794 4.27831C149.312 4.27831 148.919 4.47285 148.619 4.8633C148.374 5.17429 148.229 5.54555 148.182 5.97984H151.254Z" fill="white"/>
</svg>
