<svg width="175" height="40" viewBox="0 0 175 40" fill="none" xmlns="http://www.w3.org/2000/svg">
<g clip-path="url(#clip0_447_2694)">
<path d="M92.8155 9.47388C91.4479 9.47388 90.295 9.00987 89.3832 8.09646C88.479 7.20863 87.9741 5.98466 87.9967 4.73512C87.9967 3.40154 88.4639 2.27256 89.3832 1.37742C90.2912 0.464013 91.4441 0 92.8117 0C94.1643 0 95.3172 0.464013 96.244 1.37742C97.1633 2.30179 97.6305 3.43077 97.6305 4.73512C97.6154 6.07235 97.1482 7.20132 96.244 8.09281C95.336 9.01353 94.1831 9.47388 92.8155 9.47388ZM52.1216 9.47388C50.7841 9.47388 49.6237 9.01718 48.6743 8.11473C47.7324 7.21594 47.2539 6.07966 47.2539 4.73877C47.2539 3.39788 47.7324 2.2616 48.6743 1.36281C49.6049 0.460359 50.7653 0.00365386 52.1216 0.00365386C52.7847 0.00365386 53.429 0.131531 54.0469 0.39094C54.6535 0.643041 55.147 0.986482 55.5125 1.40665L55.6029 1.51261L54.5819 2.48447L54.4764 2.3639C53.9 1.69894 53.1276 1.37377 52.1066 1.37377C51.1948 1.37377 50.3999 1.68798 49.7443 2.3091C49.085 2.93387 48.7496 3.75229 48.7496 4.74242C48.7496 5.73256 49.085 6.55098 49.7443 7.17575C50.3999 7.79687 51.1948 8.11108 52.1066 8.11108C53.0786 8.11108 53.8962 7.79687 54.5329 7.17575C54.9097 6.81038 55.1433 6.29887 55.2261 5.65218H51.9521V4.28572H56.6315L56.6503 4.40994C56.6842 4.64012 56.7181 4.87761 56.7181 5.09683C56.7181 6.35733 56.3263 7.3767 55.5502 8.12935C54.6685 9.02083 53.5157 9.47388 52.1216 9.47388ZM106.228 9.28024H104.785L100.366 2.42236L100.403 3.65729V9.27659H98.9605V0.197297H100.607L100.652 0.266716L104.808 6.72635L104.77 5.49507V0.197297H106.228V9.28024V9.28024ZM81.9723 9.28024H80.5105V1.56376H77.9749V0.197297H84.5042V1.56376H81.9686V9.28024H81.9723ZM76.7844 9.28024H75.3263V0.197297H76.7844V9.28024ZM68.5898 9.28024H67.1318V1.56376H64.5962V0.197297H71.1254V1.56376H68.5898V9.28024ZM63.6731 9.26563H58.082V0.197297H63.6731V1.56376H59.5438V4.05554H63.27V5.40739H59.5438V7.89917H63.6731V9.26563ZM90.4532 7.15748C91.105 7.78956 91.8962 8.10743 92.8155 8.10743C93.7612 8.10743 94.5335 7.79687 95.1778 7.15748C95.8183 6.53636 96.1423 5.7216 96.1423 4.73877C96.1423 3.75594 95.8183 2.93753 95.1815 2.32006C94.5298 1.68798 93.7348 1.37011 92.8193 1.37011C91.8736 1.37011 91.1012 1.68067 90.4608 2.32006C89.8203 2.94118 89.4962 3.75594 89.4962 4.73877C89.4962 5.7216 89.8165 6.54001 90.4532 7.15748Z" fill="white"/>
<path fill-rule="evenodd" clip-rule="evenodd" d="M87.8584 21.962C84.298 21.962 81.412 24.5816 81.412 28.1951C81.412 31.7757 84.3168 34.4282 87.8584 34.4282C91.4188 34.4282 94.3048 31.7903 94.3048 28.1951C94.3048 24.5816 91.4188 21.962 87.8584 21.962ZM87.8584 31.9583C85.9105 31.9583 84.234 30.3946 84.234 28.1805C84.234 25.9335 85.9143 24.4026 87.8584 24.4026C89.8062 24.4026 91.4828 25.9335 91.4828 28.1805C91.4866 30.4092 89.8062 31.9583 87.8584 31.9583ZM73.7939 21.962C70.2336 21.962 67.3476 24.5816 67.3476 28.1951C67.3476 31.7757 70.2524 34.4282 73.7939 34.4282C77.3543 34.4282 80.2403 31.7903 80.2403 28.1951C80.2403 24.5816 77.3505 21.962 73.7939 21.962ZM73.7939 31.9583C71.8461 31.9583 70.1695 30.3946 70.1695 28.1805C70.1695 25.9335 71.8499 24.4026 73.7939 24.4026C75.7418 24.4026 77.4184 25.9335 77.4184 28.1805C77.4184 30.4092 75.7418 31.9583 73.7939 31.9583ZM57.0582 23.8655V26.5035H63.5875C63.3878 27.9832 62.883 29.0756 62.1106 29.8246C61.1536 30.7526 59.6767 31.761 57.0733 31.761C53.0608 31.761 49.9224 28.6189 49.9224 24.7278C49.9224 20.8367 53.0608 17.6945 57.0733 17.6945C59.2397 17.6945 60.8183 18.5239 61.99 19.5835L63.919 17.7128C62.2914 16.2002 60.1251 15.042 57.0884 15.042C51.5839 15.042 46.9648 19.3898 46.9648 24.7132C46.9648 30.0511 51.5802 34.3844 57.0884 34.3844C60.061 34.3844 62.2914 33.4417 64.0547 31.666C65.8518 29.9233 66.4207 27.4644 66.4207 25.4804C66.4207 24.863 66.3718 24.3076 66.27 23.8363H57.0545C57.0582 23.8326 57.0582 23.8655 57.0582 23.8655ZM125.512 25.9189C124.973 24.5195 123.345 21.9474 120.007 21.9474C116.699 21.9474 113.949 24.472 113.949 28.1805C113.949 31.6807 116.669 34.4136 120.328 34.4136C123.266 34.4136 124.977 32.6708 125.681 31.6478L123.5 30.2302C122.777 31.2715 121.771 31.9547 120.343 31.9547C118.9 31.9547 117.89 31.3189 117.219 30.0658L125.813 26.6131C125.813 26.6167 125.512 25.9189 125.512 25.9189ZM116.748 28.0014C116.681 25.5937 118.677 24.3697 120.105 24.3697C121.232 24.3697 122.17 24.9068 122.49 25.6887L116.748 28.0014ZM109.767 34.0409H112.589V15.7289H109.767V34.0409ZM105.133 23.3467H105.031C104.394 22.6123 103.185 21.9474 101.64 21.9474C98.434 21.9474 95.4802 24.6839 95.4802 28.1987C95.4802 31.6989 98.419 34.4026 101.64 34.4026C103.166 34.4026 104.394 33.734 105.031 32.985H105.133V33.8801C105.133 36.2587 103.822 37.5411 101.708 37.5411C99.9788 37.5411 98.905 36.3354 98.4679 35.327L96.0152 36.3208C96.7198 37.9649 98.5998 40 101.704 40C105.012 40 107.815 38.1111 107.815 33.5038V22.32H105.148V23.3467C105.152 23.3467 105.133 23.3467 105.133 23.3467ZM101.893 31.9583C99.9449 31.9583 98.3172 30.38 98.3172 28.1987C98.3172 25.9993 99.9449 24.4063 101.893 24.4063C103.822 24.4063 105.317 26.0175 105.317 28.1987C105.336 30.38 103.825 31.9583 101.893 31.9583ZM138.725 15.7289H131.977V34.0409H134.799V27.1063H138.729C141.852 27.1063 144.922 24.9105 144.922 21.4249C144.922 17.9393 141.863 15.7289 138.725 15.7289ZM138.808 24.5488H134.795V18.2645H138.808C140.921 18.2645 142.116 19.9561 142.116 21.4066C142.116 22.8425 140.906 24.5488 138.808 24.5488ZM156.233 21.9291C154.183 21.9291 152.07 22.8096 151.196 24.7278L153.697 25.7362C154.236 24.7278 155.223 24.3843 156.267 24.3843C157.729 24.3843 159.205 25.232 159.239 26.7446V26.9382C158.735 26.6606 157.627 26.2367 156.301 26.2367C153.599 26.2367 150.86 27.669 150.86 30.3544C150.86 32.8133 153.076 34.3917 155.543 34.3917C157.438 34.3917 158.482 33.5623 159.134 32.6014H159.236V34.019H161.956V27.004C161.956 23.7377 159.454 21.9291 156.233 21.9291ZM155.879 31.9583C154.956 31.9583 153.663 31.5199 153.663 30.3946C153.663 28.977 155.276 28.4399 156.651 28.4399C157.894 28.4399 158.482 28.6993 159.221 29.0573C159.017 30.7015 157.585 31.9437 155.879 31.9583ZM171.88 22.32L168.64 30.263H168.538L165.181 22.32H162.144L167.181 33.4234L164.311 39.5944H167.249L174.999 22.32H171.88ZM146.478 34.0409H149.3V15.7289H146.478V34.0409Z" fill="white"/>
<path fill-rule="evenodd" clip-rule="evenodd" d="M0.68947 1.12526C0.252429 1.58196 0 2.27981 0 3.19322V35.59C0 36.5034 0.252429 37.2013 0.704541 37.6397L0.821336 37.7384L19.5388 19.5871V19.1815L0.806266 1.02661L0.68947 1.12526Z" fill="#D8FF69"/>
<path opacity="0.8" fill-rule="evenodd" clip-rule="evenodd" d="M25.7664 25.6558L19.5234 19.6017V19.1779L25.7664 13.1238L25.902 13.2042L33.2865 17.2743C35.4001 18.4289 35.4001 20.3361 33.2865 21.5052L25.902 25.5754L25.7664 25.6558Z" fill="#D8FF69"/>
<path opacity="0.7" fill-rule="evenodd" clip-rule="evenodd" d="M25.9003 25.5755L19.5217 19.3899L0.6875 37.6544C1.37697 38.3705 2.53362 38.4509 3.82591 37.7531L25.9003 25.5755Z" fill="#D8FF69"/>
<path opacity="0.9" fill-rule="evenodd" clip-rule="evenodd" d="M25.9003 13.2041L3.82591 1.04474C2.53362 0.328631 1.3732 0.427279 0.6875 1.14339L19.5217 19.3897L25.9003 13.2041Z" fill="#D8FF69"/>
<path opacity="0.2" fill-rule="evenodd" clip-rule="evenodd" d="M25.7672 25.4434L3.84349 37.5223C2.61902 38.2055 1.52642 38.158 0.821874 37.5369L0.705078 37.6502L0.821874 37.7488C1.52642 38.3663 2.61902 38.4174 3.84349 37.7342L25.9179 25.5749L25.7672 25.4434Z" fill="white"/>
<path opacity="0.12" fill-rule="evenodd" clip-rule="evenodd" d="M33.2851 21.2934L25.7461 25.444L25.8817 25.5755L33.2662 21.5053C34.3249 20.9208 34.8448 20.1535 34.8448 19.3899C34.7808 20.0914 34.242 20.7564 33.2851 21.2934Z" fill="white"/>
<path opacity="0.25" fill-rule="evenodd" clip-rule="evenodd" d="M3.82788 1.25645L33.2868 17.4859C34.2437 18.0084 34.7825 18.6916 34.8654 19.3895C34.8654 18.6258 34.3455 17.8586 33.2868 17.274L3.82788 1.04453C1.71426 -0.128284 0 0.850892 0 3.19287V3.40478C0 1.05915 1.71426 0.0982423 3.82788 1.25645Z" fill="white"/>
</g>
<defs>
<clipPath id="clip0_447_2694">
<rect width="175" height="40" fill="white"/>
</clipPath>
</defs>
</svg>
