<svg width="266" height="76" viewBox="0 0 266 76" fill="none" xmlns="http://www.w3.org/2000/svg">
<g filter="url(#filter0_d_213_397)">
<path d="M139.94 18.2634C138.025 18.2634 136.411 17.6138 135.134 16.3351C133.868 15.0921 133.162 13.3785 133.193 11.6292C133.193 9.76215 133.847 8.18159 135.134 6.92839C136.406 5.64962 138.02 5 139.934 5C141.828 5 143.442 5.64962 144.739 6.92839C146.027 8.22251 146.681 9.80307 146.681 11.6292C146.659 13.5013 146.005 15.0819 144.739 16.3299C143.468 17.6189 141.854 18.2634 139.94 18.2634ZM82.9682 18.2634C81.0957 18.2634 79.4711 17.6241 78.1419 16.3606C76.8232 15.1023 76.1533 13.5115 76.1533 11.6343C76.1533 9.75704 76.8232 8.16624 78.1419 6.90793C79.4447 5.6445 81.0693 5.00512 82.9682 5.00512C83.8965 5.00512 84.7985 5.18414 85.6635 5.54732C86.5127 5.90026 87.2037 6.38108 87.7153 6.96931L87.8419 7.11765L86.4125 8.47826L86.2648 8.30947C85.4578 7.37852 84.3765 6.92328 82.9471 6.92328C81.6706 6.92328 80.5576 7.36317 79.6399 8.23274C78.7168 9.10742 78.2474 10.2532 78.2474 11.6394C78.2474 13.0256 78.7168 14.1714 79.6399 15.046C80.5576 15.9156 81.6706 16.3555 82.9471 16.3555C84.3079 16.3555 85.4525 15.9156 86.3439 15.046C86.8714 14.5345 87.1984 13.8184 87.3145 12.9131H82.7308V11H89.2819L89.3083 11.1739C89.3557 11.4962 89.4032 11.8287 89.4032 12.1356C89.4032 13.9003 88.8547 15.3274 87.7681 16.3811C86.5338 17.6292 84.9198 18.2634 82.9682 18.2634ZM158.717 17.9923H156.697L150.51 8.39131L150.563 10.1202V17.9872H148.543V5.27622H150.848L150.911 5.3734L156.729 14.4169L156.676 12.6931V5.27622H158.717V17.9923ZM124.759 17.9923H122.713V7.18926H119.163V5.27622H128.304V7.18926H124.754V17.9923H124.759ZM117.496 17.9923H115.455V5.27622H117.496V17.9923ZM106.024 17.9923H103.982V7.18926H100.432V5.27622H109.573V7.18926H106.024V17.9923ZM99.1402 17.9719H91.3126V5.27622H99.1402V7.18926H93.3592V10.6778H98.5758V12.5703H93.3592V16.0588H99.1402V17.9719ZM136.632 15.0205C137.545 15.9054 138.653 16.3504 139.94 16.3504C141.264 16.3504 142.345 15.9156 143.247 15.0205C144.143 14.1509 144.597 13.0102 144.597 11.6343C144.597 10.2583 144.143 9.11254 143.252 8.24809C142.34 7.36317 141.227 6.91816 139.945 6.91816C138.621 6.91816 137.54 7.35294 136.643 8.24809C135.746 9.11765 135.293 10.2583 135.293 11.6343C135.293 13.0102 135.741 14.156 136.632 15.0205Z" fill="white"/>
<path fill-rule="evenodd" clip-rule="evenodd" d="M133.004 35.7466C128.019 35.7466 123.979 39.4141 123.979 44.4729C123.979 49.4857 128.046 53.1993 133.004 53.1993C137.988 53.1993 142.029 49.5062 142.029 44.4729C142.029 39.4141 137.988 35.7466 133.004 35.7466ZM133.004 49.7415C130.277 49.7415 127.93 47.5522 127.93 44.4525C127.93 41.3067 130.282 39.1635 133.004 39.1635C135.731 39.1635 138.078 41.3067 138.078 44.4525C138.083 47.5727 135.731 49.7415 133.004 49.7415ZM113.314 35.7466C108.329 35.7466 104.289 39.4141 104.289 44.4729C104.289 49.4857 108.356 53.1993 113.314 53.1993C118.298 53.1993 122.339 49.5062 122.339 44.4729C122.339 39.4141 118.293 35.7466 113.314 35.7466ZM113.314 49.7415C110.587 49.7415 108.239 47.5522 108.239 44.4525C108.239 41.3067 110.592 39.1635 113.314 39.1635C116.041 39.1635 118.388 41.3067 118.388 44.4525C118.388 47.5727 116.041 49.7415 113.314 49.7415ZM89.8837 38.4115V42.1046H99.0247C98.7451 44.1763 98.0383 45.7057 96.957 46.7543C95.6172 48.0535 93.5496 49.4653 89.9048 49.4653C84.2873 49.4653 79.8935 45.0663 79.8935 39.6187C79.8935 34.1711 84.2873 29.7722 89.9048 29.7722C92.9377 29.7722 95.1478 30.9333 96.7882 32.4167L99.4888 29.7977C97.2102 27.6801 94.1773 26.0586 89.9259 26.0586C82.2196 26.0586 75.7529 32.1456 75.7529 39.5982C75.7529 47.0714 82.2144 53.1379 89.9259 53.1379C94.0876 53.1379 97.2102 51.8182 99.6787 49.3323C102.195 46.8924 102.991 43.4499 102.991 40.6724C102.991 39.808 102.923 39.0305 102.78 38.3706H89.8784C89.8837 38.3655 89.8837 38.4115 89.8837 38.4115ZM185.719 41.2862C184.964 39.3271 182.686 35.7261 178.012 35.7261C173.381 35.7261 169.531 39.2606 169.531 44.4525C169.531 49.3527 173.339 53.1788 178.461 53.1788C182.575 53.1788 184.97 50.7389 185.956 49.3067L182.902 47.322C181.889 48.7798 180.481 49.7364 178.482 49.7364C176.462 49.7364 175.048 48.8463 174.109 47.0919L186.141 42.2581C186.141 42.2632 185.719 41.2862 185.719 41.2862ZM173.45 44.2018C173.355 40.831 176.15 39.1174 178.15 39.1174C179.727 39.1174 181.04 39.8693 181.488 40.964L173.45 44.2018ZM163.676 52.6571H167.627V27.0202H163.676V52.6571ZM157.188 37.6852H157.046C156.154 36.6571 154.461 35.7261 152.299 35.7261C147.81 35.7261 143.675 39.5573 143.675 44.478C143.675 49.3783 147.789 53.1635 152.299 53.1635C154.435 53.1635 156.154 52.2274 157.046 51.1788H157.188V52.432C157.188 55.7619 155.353 57.5573 152.393 57.5573C149.972 57.5573 148.469 55.8694 147.857 54.4576L144.424 55.8489C145.41 58.1507 148.042 60.9998 152.388 60.9998C157.019 60.9998 160.944 58.3553 160.944 51.9052V36.2479H157.209V37.6852C157.215 37.6852 157.188 37.6852 157.188 37.6852ZM152.652 49.7415C149.925 49.7415 147.646 47.5318 147.646 44.478C147.646 41.3988 149.925 39.1686 152.652 39.1686C155.353 39.1686 157.447 41.4243 157.447 44.478C157.473 47.5318 155.358 49.7415 152.652 49.7415ZM204.217 27.0202H194.77V52.6571H198.721V42.9486H204.222C208.595 42.9486 212.894 39.8745 212.894 34.9947C212.894 30.1149 208.611 27.0202 204.217 27.0202ZM204.333 39.3681H198.715V30.5701H204.333C207.292 30.5701 208.964 32.9384 208.964 34.9691C208.964 36.9793 207.271 39.3681 204.333 39.3681ZM228.728 35.7005C225.859 35.7005 222.9 36.9333 221.676 39.6187L225.178 41.0305C225.933 39.6187 227.315 39.1379 228.776 39.1379C230.822 39.1379 232.89 40.3246 232.937 42.4422V42.7133C232.23 42.3246 230.68 41.7312 228.823 41.7312C225.041 41.7312 221.206 43.7364 221.206 47.496C221.206 50.9384 224.308 53.1481 227.763 53.1481C230.416 53.1481 231.877 51.987 232.79 50.6417H232.932V52.6264H236.74V42.8054C236.74 38.2325 233.238 35.7005 228.728 35.7005ZM228.232 49.7415C226.94 49.7415 225.131 49.1277 225.131 47.5522C225.131 45.5676 227.388 44.8156 229.314 44.8156C231.054 44.8156 231.877 45.1788 232.911 45.6801C232.626 47.9819 230.622 49.721 228.232 49.7415ZM250.634 36.2479L246.098 47.3681H245.955L241.255 36.2479H237.004L244.056 51.7926L240.037 60.432H244.151L255.001 36.2479H250.634ZM215.072 52.6571H219.023V27.0202H215.072V52.6571Z" fill="white"/>
<path fill-rule="evenodd" clip-rule="evenodd" d="M10.9653 6.57561C10.3534 7.215 10 8.19198 10 9.47075V54.8263C10 56.1051 10.3534 57.0821 10.9864 57.6959L11.1499 57.834L37.3543 32.4222V31.8544L11.1288 6.4375L10.9653 6.57561Z" fill="white"/>
<path opacity="0.8" fill-rule="evenodd" clip-rule="evenodd" d="M46.0721 40.9188L37.332 32.4431V31.8497L46.0721 23.374L46.262 23.4866L56.6003 29.1848C59.5594 30.8011 59.5594 33.4712 56.6003 35.1081L46.262 40.8063L46.0721 40.9188Z" fill="white"/>
<path opacity="0.7" fill-rule="evenodd" clip-rule="evenodd" d="M46.2598 40.8054L37.3298 32.1455L10.9619 57.7159C11.9272 58.7184 13.5465 58.831 15.3557 57.854L46.2598 40.8054Z" fill="white"/>
<path opacity="0.9" fill-rule="evenodd" clip-rule="evenodd" d="M46.2598 23.4858L15.3557 6.46279C13.5465 5.46023 11.9219 5.59834 10.9619 6.6009L37.3298 32.1457L46.2598 23.4858Z" fill="white"/>
<path opacity="0.2" fill-rule="evenodd" clip-rule="evenodd" d="M46.0742 40.6211L15.3811 57.5316C13.6668 58.4881 12.1372 58.4216 11.1508 57.5521L10.9873 57.7106L11.1508 57.8487C12.1372 58.7132 13.6668 58.7848 15.3811 57.8283L46.2852 40.8052L46.0742 40.6211Z" fill="white"/>
<path opacity="0.12" fill-rule="evenodd" clip-rule="evenodd" d="M56.5975 34.8105L46.043 40.6212L46.2329 40.8054L56.5712 35.1071C58.0533 34.2887 58.7812 33.2146 58.7812 32.1455C58.6916 33.1276 57.9373 34.0586 56.5975 34.8105Z" fill="white"/>
<path opacity="0.25" fill-rule="evenodd" clip-rule="evenodd" d="M15.359 6.75863L56.6015 29.4799C57.9412 30.2113 58.6955 31.1679 58.8115 32.1448C58.8115 31.0758 58.0836 30.0016 56.6015 29.1832L15.359 6.46196C12.4 4.82001 10 6.19086 10 9.46963V9.76631C10 6.48242 12.4 5.13715 15.359 6.75863Z" fill="white"/>
</g>
<defs>
<filter id="filter0_d_213_397" x="0" y="0" width="265.001" height="76" filterUnits="userSpaceOnUse" color-interpolation-filters="sRGB">
<feFlood flood-opacity="0" result="BackgroundImageFix"/>
<feColorMatrix in="SourceAlpha" type="matrix" values="0 0 0 0 0 0 0 0 0 0 0 0 0 0 0 0 0 0 127 0" result="hardAlpha"/>
<feOffset dy="5"/>
<feGaussianBlur stdDeviation="5"/>
<feComposite in2="hardAlpha" operator="out"/>
<feColorMatrix type="matrix" values="0 0 0 0 0 0 0 0 0 0 0 0 0 0 0 0 0 0 0.4 0"/>
<feBlend mode="normal" in2="BackgroundImageFix" result="effect1_dropShadow_213_397"/>
<feBlend mode="normal" in="SourceGraphic" in2="effect1_dropShadow_213_397" result="shape"/>
</filter>
</defs>
</svg>
