<svg width="195" height="60" viewBox="0 0 195 60" fill="none" xmlns="http://www.w3.org/2000/svg">
<g filter="url(#filter0_d_212_123)">
<path d="M102.815 14.4739C101.447 14.4739 100.294 14.0099 99.3822 13.0965C98.478 12.2086 97.9732 10.9847 97.9958 9.73512C97.9958 8.40154 98.4629 7.27256 99.3822 6.37742C100.29 5.46401 101.443 5 102.811 5C104.163 5 105.316 5.46401 106.243 6.37742C107.162 7.30179 107.63 8.43077 107.63 9.73512C107.614 11.0723 107.147 12.2013 106.243 13.0928C105.335 14.0135 104.182 14.4739 102.815 14.4739ZM62.1207 14.4739C60.7832 14.4739 59.6227 14.0172 58.6733 13.1147C57.7314 12.2159 57.2529 11.0797 57.2529 9.73877C57.2529 8.39788 57.7314 7.2616 58.6733 6.36281C59.6039 5.46036 60.7643 5.00365 62.1207 5.00365C62.7838 5.00365 63.428 5.13153 64.0459 5.39094C64.6525 5.64304 65.1461 5.98648 65.5115 6.40665L65.6019 6.51261L64.5809 7.48447L64.4754 7.3639C63.899 6.69894 63.1266 6.37377 62.1056 6.37377C61.1938 6.37377 60.3989 6.68798 59.7433 7.3091C59.084 7.93387 58.7487 8.75229 58.7487 9.74242C58.7487 10.7326 59.084 11.551 59.7433 12.1757C60.3989 12.7969 61.1938 13.1111 62.1056 13.1111C63.0776 13.1111 63.8952 12.7969 64.5319 12.1757C64.9087 11.8104 65.1423 11.2989 65.2252 10.6522H61.9511V9.28572H66.6305L66.6493 9.40994C66.6832 9.64012 66.7171 9.87761 66.7171 10.0968C66.7171 11.3573 66.3253 12.3767 65.5492 13.1293C64.6676 14.0208 63.5147 14.4739 62.1207 14.4739ZM116.227 14.2802H114.784L110.365 7.42236L110.402 8.65729V14.2766H108.959V5.1973H110.606L110.651 5.26672L114.807 11.7263L114.769 10.4951V5.1973H116.227V14.2802ZM91.9714 14.2802H90.5095V6.56376H87.9739V5.1973H94.5032V6.56376H91.9676V14.2802H91.9714ZM86.7834 14.2802H85.3253V5.1973H86.7834V14.2802ZM78.5889 14.2802H77.1308V6.56376H74.5952V5.1973H81.1244V6.56376H78.5889V14.2802ZM73.6721 14.2656H68.081V5.1973H73.6721V6.56376H69.5428V9.05554H73.269V10.4074H69.5428V12.8992H73.6721V14.2656ZM100.452 12.1575C101.104 12.7896 101.895 13.1074 102.815 13.1074C103.76 13.1074 104.533 12.7969 105.177 12.1575C105.817 11.5364 106.141 10.7216 106.141 9.73877C106.141 8.75594 105.817 7.93753 105.181 7.32006C104.529 6.68798 103.734 6.37011 102.818 6.37011C101.873 6.37011 101.1 6.68067 100.46 7.32006C99.8193 7.94118 99.4953 8.75594 99.4953 9.73877C99.4953 10.7216 99.8155 11.54 100.452 12.1575Z" fill="white"/>
<path fill-rule="evenodd" clip-rule="evenodd" d="M97.8591 26.962C94.2987 26.962 91.4128 29.5816 91.4128 33.1951C91.4128 36.7757 94.3176 39.4282 97.8591 39.4282C101.42 39.4282 104.305 36.7903 104.305 33.1951C104.305 29.5816 101.42 26.962 97.8591 26.962ZM97.8591 36.9583C95.9113 36.9583 94.2347 35.3946 94.2347 33.1805C94.2347 30.9335 95.915 29.4026 97.8591 29.4026C99.807 29.4026 101.484 30.9335 101.484 33.1805C101.487 35.4092 99.807 36.9583 97.8591 36.9583ZM83.7947 26.962C80.2343 26.962 77.3483 29.5816 77.3483 33.1951C77.3483 36.7757 80.2531 39.4282 83.7947 39.4282C87.355 39.4282 90.241 36.7903 90.241 33.1951C90.241 29.5816 87.3513 26.962 83.7947 26.962ZM83.7947 36.9583C81.8468 36.9583 80.1702 35.3946 80.1702 33.1805C80.1702 30.9335 81.8506 29.4026 83.7947 29.4026C85.7425 29.4026 87.4191 30.9335 87.4191 33.1805C87.4191 35.4092 85.7425 36.9583 83.7947 36.9583ZM67.059 28.8655V31.5035H73.5882C73.3885 32.9832 72.8837 34.0756 72.1113 34.8246C71.1544 35.7526 69.6775 36.761 67.0741 36.761C63.0616 36.761 59.9231 33.6189 59.9231 29.7278C59.9231 25.8367 63.0616 22.6945 67.0741 22.6945C69.2404 22.6945 70.819 23.5239 71.9908 24.5835L73.9198 22.7128C72.2922 21.2002 70.1258 20.042 67.0891 20.042C61.5847 20.042 56.9656 24.3898 56.9656 29.7132C56.9656 35.0511 61.5809 39.3844 67.0891 39.3844C70.0618 39.3844 72.2922 38.4417 74.0554 36.666C75.8526 34.9233 76.4215 32.4644 76.4215 30.4804C76.4215 29.863 76.3725 29.3076 76.2708 28.8363H67.0552C67.059 28.8326 67.059 28.8655 67.059 28.8655ZM135.513 30.9189C134.974 29.5195 133.346 26.9474 130.008 26.9474C126.7 26.9474 123.95 29.472 123.95 33.1805C123.95 36.6807 126.67 39.4136 130.328 39.4136C133.267 39.4136 134.978 37.6708 135.682 36.6478L133.501 35.2302C132.777 36.2715 131.771 36.9547 130.343 36.9547C128.9 36.9547 127.891 36.3189 127.22 35.0658L135.814 31.6131C135.814 31.6167 135.513 30.9189 135.513 30.9189ZM126.749 33.0014C126.681 30.5937 128.678 29.3697 130.106 29.3697C131.233 29.3697 132.171 29.9068 132.491 30.6887L126.749 33.0014ZM119.768 39.0409H122.59V20.7289H119.768V39.0409ZM115.134 28.3467H115.032C114.395 27.6123 113.186 26.9474 111.641 26.9474C108.435 26.9474 105.481 29.6839 105.481 33.1987C105.481 36.6989 108.42 39.4026 111.641 39.4026C113.167 39.4026 114.395 38.734 115.032 37.985H115.134V38.8801C115.134 41.2587 113.822 42.5411 111.709 42.5411C109.979 42.5411 108.906 41.3354 108.469 40.327L106.016 41.3208C106.721 42.9649 108.601 45 111.705 45C115.013 45 117.816 43.1111 117.816 38.5038V27.32H115.149V28.3467C115.152 28.3467 115.134 28.3467 115.134 28.3467ZM111.893 36.9583C109.946 36.9583 108.318 35.38 108.318 33.1987C108.318 30.9993 109.946 29.4063 111.893 29.4063C113.822 29.4063 115.318 31.0175 115.318 33.1987C115.337 35.38 113.826 36.9583 111.893 36.9583ZM148.726 20.7289H141.978V39.0409H144.8V32.1063H148.729C151.853 32.1063 154.923 29.9105 154.923 26.4249C154.923 22.9393 151.864 20.7289 148.726 20.7289ZM148.808 29.5488H144.796V23.2645H148.808C150.922 23.2645 152.116 24.9561 152.116 26.4066C152.116 27.8425 150.907 29.5488 148.808 29.5488ZM166.234 26.9291C164.184 26.9291 162.07 27.8096 161.196 29.7278L163.698 30.7362C164.237 29.7278 165.224 29.3843 166.267 29.3843C167.729 29.3843 169.206 30.232 169.24 31.7446V31.9382C168.735 31.6606 167.628 31.2367 166.301 31.2367C163.6 31.2367 160.861 32.669 160.861 35.3544C160.861 37.8133 163.076 39.3917 165.544 39.3917C167.439 39.3917 168.483 38.5623 169.135 37.6014H169.236V39.019H171.957V32.004C171.957 28.7377 169.455 26.9291 166.234 26.9291ZM165.879 36.9583C164.956 36.9583 163.664 36.5199 163.664 35.3946C163.664 33.977 165.277 33.4399 166.652 33.4399C167.895 33.4399 168.483 33.6993 169.221 34.0573C169.018 35.7015 167.586 36.9437 165.879 36.9583ZM181.88 27.32L178.64 35.263H178.539L175.182 27.32H172.145L177.182 38.4234L174.311 44.5944H177.25L185 27.32H181.88ZM156.479 39.0409H159.301V20.7289H156.479V39.0409Z" fill="white"/>
<path fill-rule="evenodd" clip-rule="evenodd" d="M10.6895 6.12502C10.2524 6.58172 10 7.27957 10 8.19298V40.5898C10 41.5032 10.2524 42.201 10.7045 42.6395L10.8213 42.7381L29.5388 24.5869V24.1813L10.8063 6.02637L10.6895 6.12502Z" fill="#D8FF69"/>
<path opacity="0.8" fill-rule="evenodd" clip-rule="evenodd" d="M35.7654 30.6555L29.5225 24.6014V24.1776L35.7654 18.1235L35.901 18.2039L43.2855 22.2741C45.3991 23.4286 45.3991 25.3358 43.2855 26.505L35.901 30.5751L35.7654 30.6555Z" fill="#D8FF69"/>
<path opacity="0.7" fill-rule="evenodd" clip-rule="evenodd" d="M35.9 30.5753L29.5215 24.3896L10.6873 42.6542C11.3767 43.3703 12.5334 43.4507 13.8257 42.7528L35.9 30.5753Z" fill="#D8FF69"/>
<path opacity="0.9" fill-rule="evenodd" clip-rule="evenodd" d="M35.9 18.2038L13.8257 6.0445C12.5334 5.32839 11.373 5.42704 10.6873 6.14315L29.5215 24.3894L35.9 18.2038Z" fill="#D8FF69"/>
<path opacity="0.2" fill-rule="evenodd" clip-rule="evenodd" d="M35.7672 30.4434L13.8435 42.5223C12.619 43.2055 11.5264 43.158 10.8219 42.5369L10.7051 42.6502L10.8219 42.7488C11.5264 43.3663 12.619 43.4174 13.8435 42.7342L35.9179 30.5749L35.7672 30.4434Z" fill="white"/>
<path opacity="0.12" fill-rule="evenodd" clip-rule="evenodd" d="M43.2841 26.2932L35.7451 30.4437L35.8807 30.5753L43.2652 26.5051C44.3239 25.9205 44.8439 25.1533 44.8439 24.3896C44.7798 25.0911 44.2411 25.7561 43.2841 26.2932Z" fill="white"/>
<path opacity="0.25" fill-rule="evenodd" clip-rule="evenodd" d="M13.8279 6.25645L43.2868 22.4859C44.2437 23.0084 44.7825 23.6916 44.8654 24.3895C44.8654 23.6258 44.3455 22.8586 43.2868 22.274L13.8279 6.04453C11.7143 4.87172 10 5.85089 10 8.19287V8.40478C10 6.05915 11.7143 5.09824 13.8279 6.25645Z" fill="white"/>
</g>
<defs>
<filter id="filter0_d_212_123" x="0" y="0" width="195" height="60" filterUnits="userSpaceOnUse" color-interpolation-filters="sRGB">
<feFlood flood-opacity="0" result="BackgroundImageFix"/>
<feColorMatrix in="SourceAlpha" type="matrix" values="0 0 0 0 0 0 0 0 0 0 0 0 0 0 0 0 0 0 127 0" result="hardAlpha"/>
<feOffset dy="5"/>
<feGaussianBlur stdDeviation="5"/>
<feComposite in2="hardAlpha" operator="out"/>
<feColorMatrix type="matrix" values="0 0 0 0 0 0 0 0 0 0 0 0 0 0 0 0 0 0 0.4 0"/>
<feBlend mode="normal" in2="BackgroundImageFix" result="effect1_dropShadow_212_123"/>
<feBlend mode="normal" in="SourceGraphic" in2="effect1_dropShadow_212_123" result="shape"/>
</filter>
</defs>
</svg>
