<svg width="24" height="24" viewBox="0 0 24 24" fill="none" xmlns="http://www.w3.org/2000/svg">
<mask id="mask0_404_3" style="mask-type:alpha" maskUnits="userSpaceOnUse" x="0" y="0" width="24" height="24">
<rect width="24" height="24" fill="#D9D9D9"/>
</mask>
<g mask="url(#mask0_404_3)">
<path d="M12 22.4804C10.5674 22.4804 9.21446 22.2038 7.94128 21.6506C6.66808 21.0973 5.55612 20.3453 4.60541 19.3946C3.65467 18.4438 2.90267 17.3319 2.34941 16.0587C1.79616 14.7855 1.51953 13.4326 1.51953 12C1.51953 10.5601 1.79616 9.20542 2.34941 7.93583C2.90267 6.66627 3.65467 5.55612 4.60541 4.60541C5.55612 3.65467 6.66808 2.90267 7.94128 2.34941C9.21446 1.79616 10.5674 1.51953 12 1.51953C13.4398 1.51953 14.7945 1.79616 16.0641 2.34941C17.3337 2.90267 18.4438 3.65467 19.3946 4.60541C20.3453 5.55612 21.0973 6.66627 21.6506 7.93583C22.2038 9.20542 22.4804 10.5601 22.4804 12C22.4804 13.4326 22.2038 14.7855 21.6506 16.0587C21.0973 17.3319 20.3453 18.4438 19.3946 19.3946C18.4438 20.3453 17.3337 21.0973 16.0641 21.6506C14.7945 22.2038 13.4398 22.4804 12 22.4804ZM11.9717 19.7945C12.3674 19.2134 12.7235 18.6002 13.0402 17.9549C13.3569 17.3096 13.6152 16.6297 13.8152 15.9152H10.1706C10.3706 16.6297 10.6219 17.3096 10.9244 17.9549C11.227 18.6002 11.5761 19.2134 11.9717 19.7945ZM9.44238 19.3945C9.12353 18.8634 8.86103 18.302 8.65488 17.7103C8.44871 17.1186 8.27063 16.5203 8.12063 15.9152H5.25543C5.7105 16.7297 6.29346 17.4406 7.00433 18.0478C7.7152 18.6551 8.52788 19.104 9.44238 19.3945ZM14.5152 19.3945C15.4297 19.104 16.2471 18.6551 16.9674 18.0478C17.6877 17.4406 18.2753 16.7297 18.7304 15.9152H15.8652C15.7152 16.5203 15.5324 17.1186 15.3168 17.7103C15.1012 18.302 14.834 18.8634 14.5152 19.3945ZM4.41956 13.9576H7.72063C7.67063 13.6242 7.63313 13.2998 7.60813 12.9842C7.58313 12.6686 7.57063 12.3406 7.57063 12C7.57063 11.65 7.58313 11.3195 7.60813 11.0087C7.63313 10.6978 7.67063 10.3757 7.72063 10.0424H4.41956C4.33622 10.3663 4.27372 10.686 4.23206 11.0016C4.19039 11.3172 4.16956 11.65 4.16956 12C4.16956 12.3406 4.19039 12.671 4.23206 12.9913C4.27372 13.3116 4.33622 13.6337 4.41956 13.9576ZM9.72063 13.9576H14.2652C14.3152 13.6242 14.348 13.2998 14.3636 12.9842C14.3791 12.6686 14.3869 12.3406 14.3869 12C14.3869 11.65 14.3791 11.3195 14.3636 11.0087C14.348 10.6978 14.3152 10.3757 14.2652 10.0424H9.72063C9.67063 10.3757 9.63313 10.6978 9.60813 11.0087C9.58313 11.3195 9.57063 11.65 9.57063 12C9.57063 12.3406 9.58313 12.6686 9.60813 12.9842C9.63313 13.2998 9.67063 13.6242 9.72063 13.9576ZM16.2652 13.9576H19.5522C19.6355 13.6337 19.698 13.3116 19.7397 12.9913C19.7813 12.671 19.8022 12.3406 19.8022 12C19.8022 11.65 19.7813 11.3172 19.7397 11.0016C19.698 10.686 19.6355 10.3663 19.5522 10.0424H16.2652C16.3058 10.3757 16.3362 10.6978 16.3565 11.0087C16.3768 11.3195 16.3869 11.65 16.3869 12C16.3869 12.3406 16.3768 12.6686 16.3565 12.9842C16.3362 13.2998 16.3058 13.6242 16.2652 13.9576ZM15.8652 8.07063H18.7304C18.2753 7.25615 17.6877 6.54764 16.9674 5.94511C16.2471 5.34256 15.4297 4.896 14.5152 4.60543C14.834 5.13658 15.1012 5.69564 15.3168 6.28261C15.5324 6.86956 15.7152 7.46556 15.8652 8.07063ZM10.1706 8.07063H13.8152C13.6246 7.35615 13.371 6.67861 13.0543 6.03803C12.7377 5.39745 12.3768 4.78658 11.9717 4.20543C11.5761 4.78658 11.227 5.39745 10.9244 6.03803C10.6219 6.67861 10.3706 7.35615 10.1706 8.07063ZM5.25543 8.07063H8.12063C8.27063 7.46556 8.44871 6.86956 8.65488 6.28261C8.86103 5.69564 9.12353 5.13658 9.44238 4.60543C8.52788 4.896 7.7152 5.34256 7.00433 5.94511C6.29346 6.54764 5.7105 7.25615 5.25543 8.07063Z" fill="#1F1F1F"/>
</g>
</svg>
