<svg width="148" height="170" viewBox="0 0 148 170" fill="none" xmlns="http://www.w3.org/2000/svg">
<path d="M35 39C35 17.4609 52.4609 0 74 0V0C95.5391 0 113 17.4609 113 39V170H35V39Z" fill="#1F1F1F"/>
<rect x="39" y="4" width="70" height="166" rx="35" fill="#D8FF69"/>
<path d="M76.08 107.648C76.4907 107.595 76.848 107.421 77.152 107.128C77.4507 106.829 77.6827 106.432 77.848 105.936C78.0133 105.435 78.096 104.859 78.096 104.208C78.096 103.584 78.0347 103.043 77.912 102.584C77.7893 102.12 77.6107 101.765 77.376 101.52C77.1413 101.269 76.864 101.144 76.544 101.144C76.2773 101.144 76.0587 101.213 75.888 101.352C75.7173 101.485 75.5787 101.715 75.472 102.04C75.36 102.36 75.272 102.803 75.208 103.368L74.936 105.784C74.824 106.819 74.624 107.664 74.336 108.32C74.048 108.971 73.6693 109.451 73.2 109.76C72.7307 110.064 72.16 110.216 71.488 110.216C70.72 110.216 70.056 109.987 69.496 109.528C68.936 109.064 68.5067 108.408 68.208 107.56C67.9093 106.712 67.76 105.723 67.76 104.592C67.76 103.488 67.9227 102.501 68.248 101.632C68.5733 100.757 69.0293 100.067 69.616 99.56C70.2027 99.0533 70.88 98.776 71.648 98.728L71.648 101.48C71.296 101.528 70.9893 101.685 70.728 101.952C70.4667 102.219 70.264 102.584 70.12 103.048C69.976 103.507 69.904 104.04 69.904 104.648C69.904 105.224 69.9627 105.725 70.08 106.152C70.1973 106.579 70.368 106.907 70.592 107.136C70.8107 107.365 71.0747 107.48 71.384 107.48C71.6293 107.48 71.832 107.416 71.992 107.288C72.152 107.155 72.2853 106.939 72.392 106.64C72.4987 106.336 72.584 105.925 72.648 105.408L72.952 102.904C73.08 101.789 73.2747 100.907 73.536 100.256C73.792 99.6053 74.136 99.136 74.568 98.848C75 98.56 75.5573 98.416 76.24 98.416C77.04 98.416 77.7413 98.6587 78.344 99.144C78.9467 99.6293 79.4133 100.315 79.744 101.2C80.0747 102.08 80.24 103.099 80.24 104.256C80.24 105.44 80.0667 106.491 79.72 107.408C79.3733 108.325 78.8853 109.048 78.256 109.576C77.6267 110.099 76.9013 110.376 76.08 110.408L76.08 107.648ZM75.112 83.6041C76.1253 83.7215 77.0213 84.0761 77.8 84.6681C78.5733 85.2601 79.1733 86.0415 79.6 87.0121C80.0267 87.9828 80.24 89.0815 80.24 90.3081C80.24 91.6681 79.9813 92.8681 79.464 93.9081C78.9413 94.9428 78.208 95.7455 77.264 96.3161C76.32 96.8868 75.232 97.1721 74 97.1721C72.768 97.1721 71.68 96.8868 70.736 96.3161C69.792 95.7455 69.0613 94.9428 68.544 93.9081C68.0213 92.8681 67.76 91.6681 67.76 90.3081C67.76 89.0815 67.9733 87.9828 68.4 87.0121C68.8267 86.0415 69.4293 85.2601 70.208 84.6681C70.9813 84.0761 71.8747 83.7215 72.888 83.6041L72.888 86.3321C72.3227 86.4441 71.8347 86.6761 71.424 87.0281C71.008 87.3748 70.6907 87.8281 70.472 88.3881C70.248 88.9481 70.136 89.5908 70.136 90.3161C70.136 91.1535 70.2933 91.8815 70.608 92.5001C70.9227 93.1135 71.3707 93.5881 71.952 93.9241C72.5333 94.2548 73.216 94.4201 74 94.4201C74.784 94.4201 75.4667 94.2548 76.048 93.9241C76.6293 93.5881 77.0773 93.1135 77.392 92.5001C77.7067 91.8815 77.864 91.1535 77.864 90.3161C77.864 89.2175 77.624 88.3215 77.144 87.6281C76.664 86.9295 75.9867 86.4975 75.112 86.3321L75.112 83.6041ZM80 73.4145L75.44 77.0305L75.44 79.1185L80 79.1185L80 81.8305L68 81.8305L68 74.9985C68 74.1292 68.1573 73.3612 68.472 72.6945C68.7813 72.0278 69.2187 71.5105 69.784 71.1425C70.3493 70.7745 71 70.5905 71.736 70.5905C72.3653 70.5905 72.9333 70.7292 73.44 71.0065C73.9467 71.2838 74.3653 71.6785 74.696 72.1905C75.0267 72.6972 75.248 73.2918 75.36 73.9745L80 70.2305L80 73.4145ZM70.144 79.1185L73.328 79.1185L73.328 75.3265C73.328 74.7078 73.1867 74.2225 72.904 73.8705C72.6213 73.5132 72.232 73.3345 71.736 73.3345C71.24 73.3345 70.8507 73.5132 70.568 73.8705C70.2853 74.2225 70.144 74.7078 70.144 75.3265L70.144 79.1185ZM80.24 62.2426C80.24 63.6186 79.9813 64.8373 79.464 65.8986C78.9413 66.96 78.208 67.784 77.264 68.3706C76.32 68.952 75.232 69.2426 74 69.2426C72.768 69.2426 71.68 68.952 70.736 68.3706C69.792 67.784 69.0613 66.96 68.544 65.8986C68.0213 64.8373 67.76 63.6186 67.76 62.2426C67.76 60.8613 68.0213 59.6426 68.544 58.5866C69.0613 57.5253 69.792 56.7013 70.736 56.1146C71.68 55.528 72.768 55.2346 74 55.2346C75.232 55.2346 76.32 55.528 77.264 56.1146C78.208 56.7013 78.9413 57.5253 79.464 58.5866C79.9813 59.6426 80.24 60.8613 80.24 62.2426ZM77.816 62.2426C77.816 61.3786 77.6613 60.6266 77.352 59.9866C77.0427 59.3413 76.6027 58.848 76.032 58.5066C75.456 58.16 74.7787 57.9866 74 57.9866C73.2213 57.9866 72.5467 58.16 71.976 58.5066C71.4 58.848 70.9573 59.3413 70.648 59.9866C70.3387 60.6266 70.184 61.3786 70.184 62.2426C70.184 63.1066 70.3387 63.8586 70.648 64.4986C70.9573 65.1386 71.4 65.632 71.976 65.9786C72.5467 66.3253 73.2213 66.4986 74 66.4986C74.7787 66.4986 75.456 66.3253 76.032 65.9786C76.6027 65.632 77.0427 65.1386 77.352 64.4986C77.6613 63.8586 77.816 63.1066 77.816 62.2426ZM68 50.6497L77.6 50.6497L77.6 42.8577L80 42.8577L80 53.3617L68 53.3617L68 50.6497ZM68 38.6341L77.6 38.6341L77.6 30.8421L80 30.8421L80 41.3461L68 41.3461L68 38.6341Z" fill="#1F1F1F"/>
<mask id="mask0_438_2671" style="mask-type:alpha" maskUnits="userSpaceOnUse" x="62" y="119" width="24" height="24">
<rect x="86" y="119" width="24" height="24" transform="rotate(90 86 119)" fill="#D9D9D9"/>
</mask>
<g mask="url(#mask0_438_2671)">
<path d="M66.6742 124.033L73.9992 129.245L81.3242 124.033L81.3242 127.288L73.9992 132.5L66.6742 127.288L66.6742 124.033ZM66.6742 130.788L73.9992 136L81.3242 130.788L81.3242 134.029L73.9992 139.255L66.6742 134.029L66.6742 130.788Z" fill="#1F1F1F"/>
</g>
<path fill-rule="evenodd" clip-rule="evenodd" d="M35 170V135C35 154.33 19.3301 170 0 170H35Z" fill="#1F1F1F"/>
<path fill-rule="evenodd" clip-rule="evenodd" d="M113 170L148 170C128.67 170 113 154.33 113 135L113 170Z" fill="#1F1F1F"/>
</svg>
